<?xml version="1.0" encoding="UTF-8" standalone="no"?>
<!-- Created with Inkscape (http://www.inkscape.org/) -->

<svg
   xmlns:dc="http://purl.org/dc/elements/1.1/"
   xmlns:cc="http://creativecommons.org/ns#"
   xmlns:rdf="http://www.w3.org/1999/02/22-rdf-syntax-ns#"
   xmlns:svg="http://www.w3.org/2000/svg"
   xmlns="http://www.w3.org/2000/svg"
   xmlns:sodipodi="http://sodipodi.sourceforge.net/DTD/sodipodi-0.dtd"
   xmlns:inkscape="http://www.inkscape.org/namespaces/inkscape"
   width="179.98904"
   height="104.61165"
   id="svg6018"
   version="1.1"
   inkscape:version="0.48.4 r9939"
   sodipodi:docname="New document 120">
  <defs
     id="defs6020" />
  <sodipodi:namedview
     id="base"
     pagecolor="#ffffff"
     bordercolor="#666666"
     borderopacity="1.0"
     inkscape:pageopacity="0.0"
     inkscape:pageshadow="2"
     inkscape:zoom="0.35"
     inkscape:cx="89.99453"
     inkscape:cy="52.305827"
     inkscape:document-units="px"
     inkscape:current-layer="layer1"
     showgrid="false"
     fit-margin-top="0"
     fit-margin-left="0"
     fit-margin-right="0"
     fit-margin-bottom="0"
     inkscape:window-width="463"
     inkscape:window-height="423"
     inkscape:window-x="161"
     inkscape:window-y="161"
     inkscape:window-maximized="0" />
  <metadata
     id="metadata6023">
    <rdf:RDF>
      <cc:Work
         rdf:about="">
        <dc:format>image/svg+xml</dc:format>
        <dc:type
           rdf:resource="http://purl.org/dc/dcmitype/StillImage" />
        <dc:title></dc:title>
      </cc:Work>
    </rdf:RDF>
  </metadata>
  <g
     inkscape:label="Layer 1"
     inkscape:groupmode="layer"
     id="layer1"
     transform="translate(-285.00547,-480.05636)">
    <path
       d="m 380.18602,485.55428 c 0,0 -7.69777,0.62794 -10.84485,1.09897 l -5.33377,-3.7694 -0.9456,12.72201 c 0,0 -14.92275,3.61308 -31.72193,-14.29185 0,0 -19.01542,16.64787 -29.53522,35.96678 -10.5198,19.32112 -16.79918,44.92398 -16.79918,44.92398 0,0 6.89993,-1.09882 10.5198,0.62734 3.6051,1.72868 7.53525,4.7119 11.4654,9.89763 0,0 5.33378,-4.3997 11.9382,-3.61352 6.58965,0.78603 10.5198,2.67102 15.5433,6.91425 0,0 11.15513,-5.97176 18.54263,-4.3997 7.37272,1.56763 16.32637,7.38292 20.5668,13.03724 0,0 12.57352,-14.76576 24.822,-14.92164 12.24847,-0.15632 16.9617,5.18056 16.9617,5.18056 0,0 5.34855,-4.55602 11.4654,-6.59689 6.13162,-2.04072 12.24847,-1.25469 12.24847,-1.25469 0,0 1.4184,-4.40192 8.8059,-6.75543 7.37273,-2.35602 17.10945,1.88485 17.10945,1.88485 0,0 -3.20618,-24.43874 -15.69105,-46.17927 -11.62793,-20.26081 -31.42643,-35.96914 -31.42643,-35.96914 0,0 -7.84552,10.20745 -31.88445,15.23672 0,0 -2.20147,0.15646 -2.51174,-2.19941 -0.31028,-2.35602 -0.31028,-10.83776 -0.31028,-10.83776 l -2.98455,3.29837"
       inkscape:connector-curvature="0"
       id="path14"
       style="fill:#7b7979;fill-opacity:1;fill-rule:nonzero;stroke:none" />
    <path
       d="m 365.26327,486.93368 1.87643,2.19719 c 0,0 7.22497,-2.8269 13.3566,-1.09823 0,0 2.05372,3.68902 1.75822,4.34592 -0.31027,0.65379 -0.75352,1.7037 -1.04902,1.09365 -0.31028,-0.61287 0.0739,0.80568 -0.31028,0.18527 -0.39892,-0.62513 -0.78307,-1.89194 -0.96037,-2.1533 -0.1773,-0.26374 -0.0443,1.17904 -0.0443,1.87967 0,0.69841 -0.96038,-2.66807 -1.22633,-2.79735 -0.26595,-0.13224 -0.39892,1.00529 -0.60577,1.04976 -0.22163,0.0411 -0.31028,-1.57738 -0.62055,-1.62111 -0.31028,-0.0439 -0.26595,2.53879 -0.60578,2.40729 -0.3546,-0.13223 -0.44325,-2.79809 -0.7092,-2.88585 -0.26595,-0.0882 -0.1773,1.43997 -0.60577,1.48444 -0.44326,0.0439 -0.57623,-1.44056 -1.13768,-1.52832 -0.57623,-0.0882 -0.25118,1.83594 -0.60578,1.83594 -0.3546,0 -0.5319,-1.40185 -0.7092,-1.40185 -0.1773,0 0,1.00883 -0.3546,1.09423 -0.33982,0.0878 -0.38415,-0.87438 -0.6501,-0.87438 -0.26595,0 -0.13297,2.31953 -0.5319,2.31953 -0.38415,0 -0.6501,-2.21212 -0.87172,-2.08978 -0.22163,0.12175 0,2.56834 -0.26595,2.56834 -0.25118,0 -0.38415,-1.79206 -0.78308,-1.74818 -0.38415,0.0439 0,1.35738 -0.31027,1.35738 -0.2955,0 -0.73875,-0.74451 -0.91605,-0.74451 -0.1773,0 0.39892,2.04825 -0.1773,2.0091 -0.56145,-0.0415 -0.42848,-1.17683 -0.69443,-1.13531 -0.26595,0.0439 0.0886,2.40507 -0.39892,2.44881 -0.4728,0.0439 -1.43318,-4.41625 -1.43318,-4.41625 0,0 0.31028,-0.0635 0.6501,0.31737 0.3546,0.38326 -1.0638,-4.09947 -1.0638,-4.09947"
       inkscape:connector-curvature="0"
       id="path16"
       style="fill:#ffffff;fill-opacity:1;fill-rule:nonzero;stroke:none" />
    <path
       d="m 372.48825,502.26097 -3.35393,-1.44278 c 0,0 0,1.92651 1.34453,2.05579 1.3593,0.1315 2.0094,-0.61301 2.0094,-0.61301"
       inkscape:connector-curvature="0"
       id="path18"
       style="fill:#ffffff;fill-opacity:1;fill-rule:nonzero;stroke:none" />
    <path
       d="m 377.70382,501.23839 2.88113,-1.03322 c 0,0 0,1.79443 -1.22633,1.83594 -1.22632,0.0439 -1.61047,0.0733 -1.6548,-0.80272"
       inkscape:connector-curvature="0"
       id="path20"
       style="fill:#ffffff;fill-opacity:1;fill-rule:nonzero;stroke:none" />
    <path
       d="m 375.60577,503.79166 0,1.88263 1.04903,-0.70063 -1.04903,-1.182"
       inkscape:connector-curvature="0"
       id="path22"
       style="fill:#ffffff;fill-opacity:1;fill-rule:nonzero;stroke:none" />
    <path
       d="m 375.2955,506.63584 c -0.5319,0.0149 -7.34318,-2.97347 -8.0967,-2.84418 -0.73875,0.13208 -0.38415,1.35516 0,1.88263 0.39892,0.52229 2.94022,3.49576 3.16185,5.02926 0,0 -2.49698,-3.85022 -3.11753,-3.67469 -0.60577,0.17375 -0.25117,0.87438 0.0887,1.13531 0.3546,0.26373 3.7233,6.21126 5.77703,6.16738 2.05372,-0.0445 1.49227,-0.3054 2.49697,-0.39301 1.0047,-0.0883 0.8274,0.21689 1.69913,0 0.87172,-0.21764 4.0188,-4.46087 4.5507,-6.90968 0,0 -0.96038,1.17963 -1.27065,0.91826 -0.31028,-0.26151 1.90597,-2.84418 1.69912,-3.63036 -0.20685,-0.78603 -0.51712,-0.91812 -1.04902,-0.5251 -0.51713,0.39301 -4.53593,2.8003 -5.93955,2.84418"
       inkscape:connector-curvature="0"
       id="path24"
       style="fill:#ffffff;fill-opacity:1;fill-rule:nonzero;stroke:none" />
    <path
       d="m 371.7495,507.77101 c 0,0 -0.51713,1.00839 0,1.48681 0.5319,0.48358 -0.13298,-0.34633 0.3546,-0.30245 0.4728,0.0415 2.31967,0.0878 3.50167,0 1.182,-0.0906 3.28005,-0.96436 3.47213,-1.35753 0,0 -3.47213,1.57221 -6.7965,0.90556 -0.72398,-0.14597 -0.31028,-1.73547 -0.5319,-0.73239"
       inkscape:connector-curvature="0"
       id="path26"
       style="fill:#7b7979;fill-opacity:1;fill-rule:nonzero;stroke:none" />
    <path
       d="m 373.77367,510.57146 c 0,0 -0.56145,0.48122 0,0.56899 0.56145,0.0854 1.16723,0.34913 1.8321,0.48077 0.6501,0.13224 1.92075,-1.04976 1.96508,-1.22529 0.0443,-0.17597 0.3546,-0.43748 -0.91605,0 -1.27065,0.4369 -1.07858,0.39538 -2.88113,0.17553"
       inkscape:connector-curvature="0"
       id="path28"
       style="fill:#7b7979;fill-opacity:1;fill-rule:nonzero;stroke:none" />
    <path
       d="m 332.30025,486.25491 c 0,0 4.41772,6.47219 7.2693,12.9005 0,0 -7.9194,-12.28748 -7.2693,-12.9005"
       inkscape:connector-curvature="0"
       id="path30"
       style="fill:#ffffff;fill-opacity:1;fill-rule:nonzero;stroke:none" />
    <path
       d="m 330.9114,489.75363 c 0,0 -0.26595,3.01794 0.20685,3.71858 0.48757,0.69782 0.0443,-3.28168 -0.20685,-3.71858"
       inkscape:connector-curvature="0"
       id="path32"
       style="fill:#ffffff;fill-opacity:1;fill-rule:nonzero;stroke:none" />
    <path
       d="m 332.2707,520.39093 c 0,0 0.7683,7.06555 0,8.94995 0,0 -1.1229,-3.61071 0,-8.94995"
       inkscape:connector-curvature="0"
       id="path34"
       style="fill:#ffffff;fill-opacity:1;fill-rule:nonzero;stroke:none" />
    <path
       d="m 315.94432,529.97104 c 0,0 -2.67427,16.96243 -3.61987,18.53228 0,0 -1.40363,-0.47103 3.61987,-18.53228"
       inkscape:connector-curvature="0"
       id="path36"
       style="fill:#ffffff;fill-opacity:1;fill-rule:nonzero;stroke:none" />
    <path
       d="m 310.38892,561.36732 c 0,0 -0.4137,0.72264 -0.36937,1.48681 0.0443,0.76874 0.57622,-0.98402 0.36937,-1.48681"
       inkscape:connector-curvature="0"
       id="path38"
       style="fill:#ffffff;fill-opacity:1;fill-rule:nonzero;stroke:none" />
    <path
       d="m 333.30495,543.89647 c 0,0 0.84217,-0.70063 1.04902,2.09968 0.22163,2.79809 1.3593,21.86537 1.22633,23.04678 -0.13298,1.182 -1.38885,-1.52832 -2.27535,-25.14646"
       inkscape:connector-curvature="0"
       id="path40"
       style="fill:#ffffff;fill-opacity:1;fill-rule:nonzero;stroke:none" />
    <path
       d="m 415.64602,483.77729 c 0,0 -4.1961,5.89094 -6.53055,10.03134 -2.33445,4.13818 -4.0188,10.71306 -4.0188,10.92316 0,0.21246 3.14707,-7.59982 4.89052,-10.04877 1.75823,-2.45118 5.65883,-10.90573 5.65883,-10.90573"
       inkscape:connector-curvature="0"
       id="path42"
       style="fill:#ffffff;fill-opacity:1;fill-rule:nonzero;stroke:none" />
    <path
       d="m 416.00062,490.3077 c 0,0 -1.22632,8.60363 0,12.58298 1.22632,3.9795 0.1182,-11.94057 0,-12.58298"
       inkscape:connector-curvature="0"
       id="path44"
       style="fill:#ffffff;fill-opacity:1;fill-rule:nonzero;stroke:none" />
    <path
       d="m 417.16784,483.77729 c 0,0 5.52585,9.21591 5.70316,8.98158 0.41369,-0.52703 -5.18603,-11.07889 -5.70316,-8.98158"
       inkscape:connector-curvature="0"
       id="path46"
       style="fill:#ffffff;fill-opacity:1;fill-rule:nonzero;stroke:none" />
    <path
       d="m 416.69505,542.96151 c 0,0 0.1773,11.43038 -0.57623,19.82687 0,0 0.32505,0.99613 0.591,0 0.28073,-0.99155 1.80255,-20.75947 -0.0148,-19.82687"
       inkscape:connector-curvature="0"
       id="path48"
       style="fill:#ffffff;fill-opacity:1;fill-rule:nonzero;stroke:none" />
    <path
       d="m 416.11882,565.12224 c 0,0 1.86165,-1.9144 2.49697,-1.88958 0.6501,0.0242 -1.22632,2.00674 -2.49697,1.88958"
       inkscape:connector-curvature="0"
       id="path50"
       style="fill:#ffffff;fill-opacity:1;fill-rule:nonzero;stroke:none" />
    <path
       d="m 439.33034,538.1227 c 0,0 1.21156,4.78281 1.38885,8.57186 0,0 0.69443,-8.57186 -1.38885,-8.57186"
       inkscape:connector-curvature="0"
       id="path52"
       style="fill:#ffffff;fill-opacity:1;fill-rule:nonzero;stroke:none" />
    <path
       d="m 334.4574,495.13203 c -6.30893,-0.7519 -17.2572,4.02338 -17.2572,4.02338 6.75217,-1.43997 5.18602,-0.12707 4.40295,1.04976 -0.79785,1.1792 -12.57353,19.5556 -15.08528,24.6611 -2.51175,5.10477 -15.23302,32.90496 -13.34182,31.67908 1.87642,-1.22765 3.6051,-4.27204 3.6051,-4.27204 0,0 4.5507,5.51004 9.23437,6.13502 3.32438,0.44443 12.8838,-6.15009 19.07453,-17.13604 6.5601,-11.65275 0.90127,-19.62652 0.90127,-19.62652 9.58898,-4.7119 11.77568,-10.20982 12.57353,-12.6904 0.78307,-2.48057 2.20147,-13.06893 -4.10745,-13.82334 z m -18.33578,51.03728 c -1.61047,2.62493 -5.3781,5.86213 -7.0329,5.5984 -1.66957,-0.26152 -3.76762,-3.23499 -3.59032,-6.55996 0.1773,-3.3226 7.16587,-16.919 8.9241,-17.75644 3.8415,-1.83594 5.42242,0.87438 5.58495,5.42449 0.1773,4.54863 -2.26058,10.67154 -3.88583,13.29351 z m 13.43048,-32.62394 c -3.05843,3.41037 -6.5601,6.29844 -11.02215,5.59781 l 9.88447,-14.41139 c 0,0 4.1961,5.40041 1.13768,8.81358"
       inkscape:connector-curvature="0"
       id="path54"
       style="fill:#ffffff;fill-opacity:1;fill-rule:nonzero;stroke:none" />
    <path
       d="m 354.74347,503.79166 c -0.5319,-1.09143 0,3.01498 -1.8321,4.63388 0,0 -4.47682,-1.09601 -9.01275,0 0,0 -0.75352,0.17833 -0.4137,-2.99312 0.3546,-3.17145 -0.45802,-5.11008 -0.63532,-4.29908 0,0 -3.85628,18.33474 -7.78643,25.60744 -3.94492,7.27033 -11.19945,21.76254 -11.19945,21.76254 0,0 -0.60577,1.42844 0.62055,2.73973 1.21155,1.31305 1.4775,2.18743 2.0094,1.83815 0.51713,-0.35149 7.46138,-16.40364 12.78038,-13.84521 5.319,2.56081 -2.20148,23.99667 -2.20148,23.99667 l -0.44325,1.89431 c 0.8865,0.55169 4.728,-1.25012 6.22028,0 1.4775,1.25011 0.0886,3.4374 0.78307,3.52516 0.69443,0.0883 0.69443,-1.13752 0.96038,-3.06123 0.26595,-1.92356 10.5789,-53.14434 10.5789,-56.18135 0.0148,-2.94923 0.0887,-4.52425 -0.42848,-5.61789 z m -9.19005,28.56938 c -0.78307,0.71053 -7.52047,1.38914 -8.0376,1.47691 -0.5319,0.0878 -0.44325,-0.17538 0,-0.96215 0.42848,-0.78839 6.81128,-16.79386 6.81128,-16.79386 0.5319,-1.75039 2.80725,-1.75039 3.14707,-1.31128 2.73338,3.48661 -1.13767,16.87985 -1.92075,17.59038"
       inkscape:connector-curvature="0"
       id="path56"
       style="fill:#ffffff;fill-opacity:1;fill-rule:nonzero;stroke:none" />
    <path
       d="m 356.81197,515.03218 c -0.32505,0.37809 -1.0047,7.55372 -2.45265,11.7086 -0.2955,0.86685 -0.33982,1.17904 0.8274,0.82769 1.15245,-0.34928 7.04768,-0.40749 7.28408,0.75722 0.2364,1.16693 -5.77703,26.94059 -6.41235,29.04026 -0.6501,2.09968 0.4137,2.08697 2.0094,-0.8206 1.5957,-2.91008 3.04365,-3.54955 6.6192,-3.14442 0.4137,0.049 0.39892,-0.99095 0.45802,-1.28409 0,0 3.38348,-17.66824 3.56078,-20.29021 0.1773,-2.62493 2.33445,-4.25816 3.7233,-4.55085 1.40362,-0.29092 7.83075,-0.29092 8.34787,-0.99155 0.51713,-0.69827 5.77703,-12.06763 4.9644,-12.1848 -0.8274,-0.11716 -2.86635,5.68838 -4.6689,6.56971 0,0 -1.75822,0.37115 -3.73807,0.078 -1.97985,-0.29269 -6.17595,-0.85193 -8.9832,-0.96673 0,0 -8.6877,0.034 -10.03223,0.2101 -0.96037,0.12455 -0.75352,0.10727 -0.75352,-0.87675 0,-0.93496 -0.1182,-4.84117 -0.75353,-4.08159"
       inkscape:connector-curvature="0"
       id="path58"
       style="fill:#ffffff;fill-opacity:1;fill-rule:nonzero;stroke:none" />
    <path
       d="m 385.8153,520.39093 c -0.42848,1.30093 -1.68435,6.53793 -4.74278,11.52346 -3.05842,4.98538 -12.69172,22.38989 -12.78037,24.22805 -0.0886,1.83594 2.08327,6.12069 3.22095,5.51063 1.15245,-0.61287 7.19542,-18.72096 9.8106,-18.72096 2.62995,0 4.46205,11.02289 5.33377,10.93527 0.8865,-0.0878 5.95432,-14.0819 6.82605,-13.90638 0.87173,0.17361 -0.78307,23.68152 0,24.21889 0.79785,0.53663 2.7186,-0.85488 4.12223,-0.94723 1.38884,-0.0929 2.88112,1.63574 3.14707,0.94723 0.25118,-0.68866 0.0887,-13.81123 0,-16.43556 -0.0887,-2.62478 -1.49228,-16.70669 -1.49228,-23.35426 0,-6.64594 -0.1773,-19.15564 -1.13767,-20.02943 -0.96038,-0.87438 -1.56615,10.49779 -2.88113,14.9557 -1.31497,4.46308 -4.63935,15.65692 -6.5601,19.94389 0,0 -0.1773,-1.66278 -0.44325,-3.6741 -0.26595,-2.01192 -1.74345,-7.62184 -1.58092,-10.71986 0.1773,-3.09817 0.97515,-9.96396 -0.84218,-4.47534"
       inkscape:connector-curvature="0"
       id="path60"
       style="fill:#ffffff;fill-opacity:1;fill-rule:nonzero;stroke:none" />
    <path
       d="m 428.1309,550.45643 c 0,0 -6.04298,-16.53072 -8.05238,-23.26605 -2.0094,-6.73592 -4.4325,-17.97645 -5.77702,-28.42799 -0.54668,-4.24042 -1.15245,-1.31069 -1.22633,0 -0.0591,1.31129 0.62055,9.26777 0.1773,9.66315 -0.42847,0.39538 -2.98455,0.69309 -4.3734,1.21835 -1.99462,0.75204 -2.85157,2.43388 -3.7824,1.98709 -0.93082,-0.44902 -2.61517,-5.95669 -3.57555,-5.17066 l 0.10343,0.35149 c -0.5319,0.69842 1.22632,5.15855 1.56615,8.65727 0.3546,3.49872 1.25587,35.51245 1.90597,36.56236 0.63533,1.04976 1.4184,-0.17612 2.1276,0 0.69443,0.17316 2.45265,0.94708 2.45265,0.42936 0,-0.51712 -3.41302,-10.57565 3.57555,-13.02446 7.00335,-2.45117 6.9147,11.28145 7.78643,14.95555 0.87172,3.67484 2.96977,8.40624 3.50167,8.84077 0.51713,0.43468 -2.6595,-4.58246 2.70383,-10.15146 1.16722,-1.20386 1.49227,-0.8766 0.8865,-2.62477 z m -12.48488,-16.13017 c -0.32505,0.83967 -5.45197,3.18357 -5.95432,2.83429 -0.51713,-0.34913 0.591,-5.77377 0.67965,-8.74724 0.0887,-2.97347 -1.0047,-11.43098 0,-10.14629 1.92075,2.45117 5.59972,15.21943 5.27467,16.05924"
       inkscape:connector-curvature="0"
       id="path62"
       style="fill:#ffffff;fill-opacity:1;fill-rule:nonzero;stroke:none" />
    <path
       d="m 421.3935,516.34287 c 0.10342,1.26976 3.75284,11.6359 4.80187,14.60937 1.04903,2.97347 3.41303,8.47657 4.728,11.97987 1.31497,3.50093 2.364,7.9618 2.45265,9.18473 0.0887,1.22529 -0.0887,2.53894 0.51713,2.53894 0.62055,0 0.79784,-1.83831 2.62994,-2.45118 1.8321,-0.61006 2.45266,0.0876 2.80725,-1.13752 0.33983,-1.22308 -4.99394,-11.98223 -5.2599,-17.66824 0,0 8.05238,3.85006 11.4654,7.96106 3.41303,4.11159 8.21491,11.54533 8.99798,11.10844 0.79786,-0.4369 0.97515,-1.48681 2.11282,-1.48681 1.13768,0 4.62458,2.70973 4.62458,2.70973 0,0 -3.14708,-4.72164 -4.71323,-6.9967 -1.58091,-2.27284 -8.65815,-17.49286 -13.6521,-26.50384 -4.97917,-9.00876 -17.67089,-26.87025 -17.67089,-27.42904 0,-0.55924 -0.60577,0.48831 -1.30021,1.49656 -0.7092,1.00543 -0.13297,1.35752 -1.03424,1.70666 -0.90128,0.34869 -2.82202,-1.75055 -2.55608,-0.83287 0.25119,0.91827 7.69778,11.06913 9.26393,13.82334 1.58092,2.75362 8.7468,17.09689 8.7468,17.09689 0,0 -5.33377,-2.8003 -8.12624,-6.0347 -2.80726,-3.23484 -6.38281,-8.5528 -6.73741,-8.38658 -0.3546,0.16621 0.51713,2.78819 -0.1773,3.75033 -0.69443,0.96156 -1.99463,0.0681 -1.92075,0.96156"
       inkscape:connector-curvature="0"
       id="path64"
       style="fill:#ffffff;fill-opacity:1;fill-rule:nonzero;stroke:none" />
  </g>
</svg>
