<?xml version="1.0" encoding="UTF-8"?>
<svg width="209px" height="183px" viewBox="0 0 209 183" version="1.1" xmlns="http://www.w3.org/2000/svg" xmlns:xlink="http://www.w3.org/1999/xlink">
    <title>Group</title>
    <defs>
        <linearGradient x1="13.0270371%" y1="75.3058628%" x2="66.2554553%" y2="42.7743729%" id="linearGradient-1">
            <stop stop-color="#8338EC" offset="0%"></stop>
            <stop stop-color="#3A86FF" offset="100%"></stop>
        </linearGradient>
    </defs>
    <g id="Page-1" stroke="none" stroke-width="1" fill="none" fill-rule="evenodd" stroke-linecap="round">
        <g id="Group" transform="translate(3.631977, 3.834284)" stroke="#000000" stroke-width="2">
            <path d="M190.59278,22.5356173 C198.189972,24.1314636 201.960883,26.4445985 201.905512,29.475022 C201.679448,41.7242027 188.587705,58.171971 183.921093,61.9049467 C177.522715,67.0232188 160.793211,69.0615538 133.732582,68.0199518 C130.693971,71.8135695 128.438913,75.2351111 126.967406,78.2845764 C125.495899,81.3340418 123.541137,86.6366875 121.10312,94.1925137 L121.10312,108.245552 C123.245703,118.236594 125.200465,126.493338 126.967406,133.015785 C128.734347,139.538231 132.08648,146.471261 137.023806,153.814876 C132.231821,159.650333 128.879687,163.209275 126.967406,164.4917 C123.269877,165.064448 120.114636,166.301702 117.501684,168.203461 C114.888731,170.105221 112.870936,172.633009 111.448296,175.786825 C89.9629133,175.786825 73.2631558,175.786825 61.3490238,175.786825 C49.4348917,175.786825 35.8791012,175.414704 20.6816521,174.670464 C12.68345,172.481716 7.40411826,169.088795 4.8436568,164.4917 C1.00296461,157.596059 -0.948860071,137.865853 1,133.015785 C2.94886007,128.165716 13.032847,109.961831 25.5577586,97.6494676 C33.9076996,89.4412253 45.8381214,81.4550315 61.3490238,73.690886 C55.0321132,70.1446886 49.7007052,66.2160422 45.3547998,61.9049467 C41.0088944,57.5938512 38.0841216,52.5759713 36.5804814,46.8513072 C35.0858607,35.2491649 37.0039385,27.143935 42.334715,22.5356173 C47.6654914,17.9272997 57.8504543,16.0974125 72.8896038,17.0459559 C78.5875621,10.9935652 83.7470351,6.75248758 88.368023,4.32272291 C92.9890108,1.89295824 95.6556775,0.656762637 96.368023,0.61413611 C103.754197,-0.563007365 110.67764,-0.0479362749 117.138353,2.15934938 C126.829423,5.47027786 128.112471,8.60853314 133.732582,14.8695511 C139.352693,21.1305691 138.968368,25.3812386 141.657866,29.475022 C143.450865,32.204211 145.768249,34.8842179 148.610019,37.5150426 C160.58302,44.4355929 169.30225,46.9208318 174.767708,44.9707595 C180.233166,43.0206871 185.50819,35.5423064 190.59278,22.5356173 Z" id="Path" fill="url(#linearGradient-1)"></path>
            <path d="M65.368023,133.165716 C75.3499609,138.712999 83.0166276,141.95198 88.368023,142.882657 C93.7194184,143.813334 101.386085,143.241021 111.368023,141.165716" id="Line-3"></path>
            <path d="M116.060633,169.168699 C116.103482,159.543451 115.705946,152.915327 114.868023,149.284328 C114.0301,145.653329 113.0301,143.113792 111.868023,141.665716" id="Line-4"></path>
            <path d="M86.868023,114.665716 C85.7589655,117.50891 85.2044368,120.731746 85.2044368,124.334225 C85.2044368,127.936705 85.7589655,133.713868 86.868023,141.665716" id="Line-5"></path>
            <circle id="Oval" fill="#000000" cx="126.868023" cy="40.6657161" r="2.5"></circle>
            <path d="M130.307499,159.184097 C125.396716,152.561296 122.083557,146.570943 120.368023,141.213036 C117.794721,133.176176 117.501684,118.675198 117.501684,110.812239 C117.501684,105.570267 118.45713,100.598372 120.368023,95.8965561" id="Line"></path>
            <path d="M62.368023,73.1657161 C77.9487226,79.2741209 88.5704549,81.6577327 94.2332199,80.3165515 C99.8959848,78.9753703 101.940919,73.5917585 100.368023,64.1657161" id="Line-2"></path>
        </g>
    </g>
</svg>
