<svg width="979" height="661" xmlns="http://www.w3.org/2000/svg"><defs><linearGradient x1="50%" y1="0%" x2="50%" y2="100%" id="a"><stop stop-color="#FFBE0B" offset="0%"/><stop stop-color="#FB5607" offset="24.736%"/><stop stop-color="#FF006E" offset="51.003%"/><stop stop-color="#8338EC" offset="78.83%"/><stop stop-color="#3A86FF" offset="100%"/></linearGradient></defs><g fill="none" fill-rule="evenodd"><path d="M0 0h979v661H0z"/><path d="M293 490V211.5h97V150H126v61.5h97V490h70zm244 4.5c16.667 0 32.083-2.083 46.25-6.25 14.167-4.167 26.417-10.417 36.75-18.75 10.333-8.333 18.417-18.583 24.25-30.75 5.833-12.167 8.75-26.083 8.75-41.75 0-14.667-2.083-27.417-6.25-38.25-4.167-10.833-10.167-20.5-18-29s-17.5-16.167-29-23C588.25 299.917 575 293.333 560 287l-17.5-7.5c-15-6.667-25.917-12.75-32.75-18.25-6.833-5.5-10.25-13.583-10.25-24.25 0-8.667 3-15.833 9-21.5s14.167-8.5 24.5-8.5c10 0 18.5 2.333 25.5 7s13.5 12.333 19.5 23l54.5-35c-11.667-20.333-25.583-34.75-41.75-43.25S555.333 146 533 146c-15.667 0-29.833 2.333-42.5 7-12.667 4.667-23.417 11.167-32.25 19.5-8.833 8.333-15.667 18.167-20.5 29.5-4.833 11.333-7.25 23.5-7.25 36.5 0 14.333 2 26.833 6 37.5 4 10.667 9.667 20.167 17 28.5 7.333 8.333 16.167 15.667 26.5 22 10.333 6.333 21.833 12.167 34.5 17.5l17.5 7.5c16 7 28.5 13.5 37.5 19.5s13.5 15 13.5 27c0 10-4.25 18.25-12.75 24.75s-20.083 9.75-34.75 9.75c-17.333 0-31.25-4-41.75-12s-19.583-18.167-27.25-30.5l-57 33c5 10 11.417 19.417 19.25 28.25 7.833 8.833 17.083 16.417 27.75 22.75 10.667 6.333 22.667 11.333 36 15 13.333 3.667 28.167 5.5 44.5 5.5zM792.5 310L778 254.5l41 41 29.5-50-58-15.5 58-15.5-29.5-50-41 41 14.5-55.5h-59l14.5 55.5-41-41-29 50 56.5 15.5-56.5 15.5 29 50 41-41-14.5 55.5h59z" fill="url(#a)" fill-rule="nonzero"/></g></svg>