<?xml version="1.0" encoding="UTF-8"?>
<svg width="979px" height="661px" viewBox="0 0 979 661" version="1.1" xmlns="http://www.w3.org/2000/svg" xmlns:xlink="http://www.w3.org/1999/xlink">
    <title>Slice 1</title>
    <defs>
        <linearGradient x1="50%" y1="0%" x2="50%" y2="100%" id="linearGradient-1">
            <stop stop-color="#FFBE0B" offset="0%"></stop>
            <stop stop-color="#FB5607" offset="24.7360642%"></stop>
            <stop stop-color="#FF006E" offset="51.0029561%"></stop>
            <stop stop-color="#8338EC" offset="78.8297086%"></stop>
            <stop stop-color="#3A86FF" offset="100%"></stop>
        </linearGradient>
        <linearGradient x1="50.240137%" y1="-188.623154%" x2="50%" y2="269.181653%" id="linearGradient-2">
            <stop stop-color="#FFBE0B" offset="0%"></stop>
            <stop stop-color="#FB5607" offset="24.7360642%"></stop>
            <stop stop-color="#FF006E" offset="51.0029561%"></stop>
            <stop stop-color="#8338EC" offset="78.8297086%"></stop>
            <stop stop-color="#3A86FF" offset="100%"></stop>
        </linearGradient>
    </defs>
    <g id="Page-1" stroke="none" stroke-width="1" fill="none" fill-rule="evenodd">
        <rect id="Rectangle" x="0" y="0" width="979" height="661"></rect>
        <g id="Group" transform="translate(166.000000, 98.000000)" fill-rule="nonzero">
            <path d="M646.3,218.5 C646.3,186 605.6,155.2 543.2,136.1 C557.6,72.5 551.2,21.9 523,5.7 C516.5,1.9 508.9,0.1 500.6,0.1 L500.6,22.4 C505.2,22.4 508.9,23.3 512,25 C525.6,32.8 531.5,62.5 526.9,100.7 C525.8,110.1 524,120 521.8,130.1 C502.2,125.3 480.8,121.6 458.3,119.2 C444.8,100.7 430.8,83.9 416.7,69.2 C449.3,38.9 479.9,22.3 500.7,22.3 L500.7,0 C500.7,0 500.7,0 500.7,0 C473.2,0 437.2,19.6 400.8,53.6 C364.4,19.8 328.4,0.4 300.9,0.4 L300.9,22.7 C321.6,22.7 352.3,39.2 384.9,69.3 C370.9,84 356.9,100.7 343.6,119.2 C321,121.6 299.6,125.3 280,130.2 C277.7,120.2 276,110.5 274.8,101.2 C270.1,63 275.9,33.3 289.4,25.4 C292.4,23.6 296.3,22.8 300.9,22.8 L300.9,0.5 C300.9,0.5 300.9,0.5 300.9,0.5 C292.5,0.5 284.9,2.3 278.3,6.1 C250.2,22.3 243.9,72.8 258.4,136.2 C196.2,155.4 155.7,186.1 155.7,218.5 C155.7,251 196.4,281.8 258.8,300.9 C244.4,364.5 250.8,415.1 279,431.3 C285.5,435.1 293.1,436.9 301.5,436.9 C329,436.9 365,417.3 401.4,383.3 C437.8,417.1 473.8,436.5 501.3,436.5 C509.7,436.5 517.3,434.7 523.9,430.9 C552,414.7 558.3,364.2 543.8,300.8 C605.8,281.7 646.3,250.9 646.3,218.5 Z M516.1,151.8 C512.4,164.7 507.8,178 502.6,191.3 C498.5,183.3 494.2,175.3 489.5,167.3 C484.9,159.3 480,151.5 475.1,143.9 C489.3,146 503,148.6 516.1,151.8 Z M470.3,258.3 C462.5,271.8 454.5,284.6 446.2,296.5 C431.3,297.8 416.2,298.5 401,298.5 C385.9,298.5 370.8,297.8 356,296.6 C347.7,284.7 339.6,272 331.8,258.6 C324.2,245.5 317.3,232.2 311,218.8 C317.2,205.4 324.2,192 331.7,178.9 C339.5,165.4 347.5,152.6 355.8,140.7 C370.7,139.4 385.8,138.7 401,138.7 C416.1,138.7 431.2,139.4 446,140.6 C454.3,152.5 462.4,165.2 470.2,178.6 C477.8,191.7 484.7,205 491,218.4 C484.7,231.8 477.8,245.2 470.3,258.3 Z M502.6,245.3 C508,258.7 512.6,272.1 516.4,285.1 C503.3,288.3 489.5,291 475.2,293.1 C480.1,285.4 485,277.5 489.6,269.4 C494.2,261.4 498.5,253.3 502.6,245.3 Z M401.2,352 C391.9,342.4 382.6,331.7 373.4,320 C382.4,320.4 391.6,320.7 400.9,320.7 C410.3,320.7 419.6,320.5 428.7,320 C419.7,331.7 410.4,342.4 401.2,352 Z M326.8,293.1 C312.6,291 298.9,288.4 285.8,285.2 C289.5,272.3 294.1,259 299.3,245.7 C303.4,253.7 307.7,261.7 312.4,269.7 C317.1,277.7 321.9,285.5 326.8,293.1 Z M400.7,85 C410,94.6 419.3,105.3 428.5,117 C419.5,116.6 410.3,116.3 401,116.3 C391.6,116.3 382.3,116.5 373.2,117 C382.2,105.3 391.5,94.6 400.7,85 Z M326.7,143.9 C321.8,151.6 316.9,159.5 312.3,167.6 C307.7,175.6 303.4,183.6 299.3,191.6 C293.9,178.2 289.3,164.8 285.5,151.8 C298.6,148.7 312.4,146 326.7,143.9 Z M236.2,269.1 C200.8,254 177.9,234.2 177.9,218.5 C177.9,202.8 200.8,182.9 236.2,167.9 C244.8,164.2 254.2,160.9 263.9,157.8 C269.6,177.4 277.1,197.8 286.4,218.7 C277.2,239.5 269.8,259.8 264.2,279.3 C254.3,276.2 244.9,272.8 236.2,269.1 Z M290,412 C276.4,404.2 270.5,374.5 275.1,336.3 C276.2,326.9 278,317 280.2,306.9 C299.8,311.7 321.2,315.4 343.7,317.8 C357.2,336.3 371.2,353.1 385.3,367.8 C352.7,398.1 322.1,414.7 301.3,414.7 C296.8,414.6 293,413.7 290,412 Z M527.2,335.8 C531.9,374 526.1,403.7 512.6,411.6 C509.6,413.4 505.7,414.2 501.1,414.2 C480.4,414.2 449.7,397.7 417.1,367.6 C431.1,352.9 445.1,336.2 458.4,317.7 C481,315.3 502.4,311.6 522,306.7 C524.3,316.8 526.1,326.5 527.2,335.8 Z M565.7,269.1 C557.1,272.8 547.7,276.1 538,279.2 C532.3,259.6 524.8,239.2 515.5,218.3 C524.7,197.5 532.1,177.2 537.7,157.7 C547.6,160.8 557,164.2 565.8,167.9 C601.2,183 624.1,202.8 624.1,218.5 C624,234.2 601.1,254.1 565.7,269.1 Z" id="Shape" fill="url(#linearGradient-1)"></path>
            <circle id="Oval" fill="url(#linearGradient-2)" cx="400.9" cy="218.5" r="45.7"></circle>
            <circle id="Oval" fill="url(#linearGradient-2)" cx="45.7" cy="172.7" r="45.7"></circle>
            <circle id="Oval" fill="url(#linearGradient-2)" cx="45.7" cy="309.7" r="45.7"></circle>
        </g>
    </g>
</svg>